<?xml version="1.0" encoding="utf-8"?>
<!-- Generator: Adobe Illustrator 19.0.0, SVG Export Plug-In . SVG Version: 6.00 Build 0)  -->
<svg version="1.1" id="Layer_1" xmlns="http://www.w3.org/2000/svg" xmlns:xlink="http://www.w3.org/1999/xlink" x="0px" y="0px"
	 viewBox="-263 354.7 84.5 84.3" style="enable-background:new -263 354.7 84.5 84.3;" xml:space="preserve">
<style type="text/css">
	.st0{enable-background:new    ;}
	.st1{fill:#B8B5B5;stroke:#B8B5B5;stroke-width:0.25;stroke-miterlimit:10;}
</style>
<g>
	<g class="st0">
		<path class="st1" d="M-229.7,391.5c0.2-0.9,0.7-1.7,1.4-2.3c0.7-0.6,1.6-0.9,2.7-0.9c0.7,0,1.3,0.1,1.9,0.4c0.5,0.3,1,0.7,1.4,1.2
			s0.6,1.1,0.8,1.7s0.3,1.3,0.3,2.1c0,0.8-0.1,1.5-0.3,2.1c-0.2,0.7-0.5,1.2-0.9,1.7s-0.8,0.8-1.4,1.1c-0.5,0.3-1.2,0.4-1.8,0.4
			c-1.1,0-1.9-0.3-2.7-0.9c-0.7-0.6-1.2-1.3-1.5-2.2l0,0v2.9h-0.4v-14.3h0.4L-229.7,391.5L-229.7,391.5z M-229.5,395.7
			c0.2,0.6,0.5,1.1,0.8,1.6s0.8,0.8,1.3,1.1c0.5,0.3,1.1,0.4,1.8,0.4s1.2-0.1,1.8-0.4c0.5-0.3,0.9-0.6,1.2-1.1s0.6-1,0.7-1.6
			c0.2-0.6,0.2-1.2,0.2-1.9c0-0.6-0.1-1.2-0.2-1.8c-0.2-0.6-0.4-1.1-0.7-1.6s-0.7-0.9-1.2-1.2s-1.1-0.5-1.8-0.5
			c-1.3,0-2.3,0.4-3,1.3c-0.8,0.9-1.1,2.1-1.1,3.7C-229.8,394.5-229.7,395.1-229.5,395.7z"/>
		<path class="st1" d="M-219.4,395.8c0.2,0.6,0.4,1.1,0.7,1.5s0.7,0.8,1.2,1c0.5,0.3,1.1,0.4,1.9,0.4c1.1,0,2-0.3,2.7-0.8
			c0.7-0.6,1.2-1.4,1.3-2.5h0.4c-0.1,1.2-0.6,2.1-1.4,2.8c-0.8,0.7-1.8,1-3,1c-0.8,0-1.5-0.1-2-0.4c-0.6-0.3-1-0.6-1.4-1.1
			s-0.6-1.1-0.8-1.7c-0.2-0.7-0.3-1.4-0.3-2.1c0-0.9,0.1-1.6,0.4-2.3c0.3-0.7,0.6-1.2,1-1.7s0.9-0.8,1.4-1s1.1-0.4,1.7-0.4
			c0.8,0,1.5,0.2,2.1,0.5s1.1,0.7,1.4,1.2c0.4,0.5,0.6,1.1,0.8,1.7c0.2,0.7,0.2,1.3,0.2,2h-8.6
			C-219.6,394.6-219.5,395.2-219.4,395.8z M-211.7,391.7c-0.2-0.6-0.4-1.1-0.8-1.5c-0.3-0.4-0.8-0.8-1.3-1s-1.1-0.4-1.8-0.4
			c-0.6,0-1.1,0.1-1.6,0.3c-0.5,0.2-0.9,0.5-1.3,0.9c-0.4,0.4-0.7,0.9-0.9,1.5s-0.4,1.2-0.4,1.9h8.2
			C-211.4,392.9-211.5,392.3-211.7,391.7z"/>
	</g>
	<g class="st0">
		<path class="st1" d="M-234.6,407.7c-0.1,0.3-0.3,0.6-0.6,0.8c-0.2,0.2-0.5,0.4-0.8,0.5s-0.7,0.2-1,0.2c-0.5,0-0.9-0.1-1.3-0.3
			c-0.4-0.2-0.7-0.4-0.9-0.7c-0.3-0.3-0.4-0.7-0.6-1.1c-0.1-0.4-0.2-0.8-0.2-1.3s0.1-0.9,0.2-1.4c0.1-0.4,0.3-0.8,0.6-1.2
			c0.3-0.3,0.6-0.6,1-0.8c0.4-0.2,0.9-0.3,1.4-0.3c0.3,0,0.6,0,0.9,0.1c0.3,0.1,0.5,0.2,0.8,0.4c0.2,0.2,0.4,0.4,0.6,0.7
			c0.2,0.3,0.2,0.6,0.3,0.9h-0.3c-0.1-0.3-0.1-0.6-0.3-0.9c-0.1-0.2-0.3-0.4-0.5-0.6s-0.4-0.3-0.7-0.4s-0.5-0.1-0.8-0.1
			c-0.5,0-1,0.1-1.3,0.3c-0.4,0.2-0.7,0.5-0.9,0.8s-0.4,0.7-0.5,1.1s-0.1,0.8-0.1,1.2c0,0.4,0.1,0.8,0.2,1.2c0.1,0.4,0.3,0.7,0.5,1
			s0.5,0.5,0.8,0.7s0.7,0.3,1.2,0.3c0.3,0,0.6,0,0.9-0.2c0.3-0.1,0.5-0.2,0.8-0.4c0.2-0.2,0.4-0.4,0.5-0.7c0.1-0.3,0.2-0.6,0.2-0.9
			h0.3C-234.4,407-234.5,407.4-234.6,407.7z"/>
		<path class="st1" d="M-233.3,408.9v-6.7h0.3v1.7l0,0c0.1-0.3,0.2-0.5,0.3-0.7s0.3-0.4,0.5-0.6s0.5-0.3,0.8-0.4s0.6-0.1,1-0.1v0.3
			c-0.5,0-0.9,0-1.2,0.2s-0.6,0.4-0.8,0.6c-0.2,0.3-0.4,0.6-0.5,0.9s-0.2,0.7-0.2,1.1v3.8L-233.3,408.9L-233.3,408.9z"/>
		<path class="st1" d="M-229.9,406.9c0.1,0.4,0.3,0.7,0.5,1s0.5,0.5,0.8,0.7s0.7,0.2,1.2,0.2c0.7,0,1.3-0.2,1.7-0.6
			c0.5-0.4,0.8-0.9,0.9-1.7h0.3c-0.1,0.8-0.4,1.4-0.9,1.8s-1.2,0.6-1.9,0.6c-0.5,0-1-0.1-1.3-0.2c-0.4-0.2-0.7-0.4-0.9-0.7
			C-229.7,407.7-229.9,407.3-229.9,406.9c-0.2-0.4-0.3-0.9-0.3-1.4c0-0.6,0.1-1,0.2-1.5c0.2-0.4,0.4-0.8,0.7-1.1
			c0.3-0.3,0.6-0.5,0.9-0.7c0.4-0.2,0.7-0.2,1.1-0.2c0.5,0,1,0.1,1.3,0.3c0.4,0.2,0.7,0.5,0.9,0.8s0.4,0.7,0.5,1.1s0.2,0.9,0.1,1.3
			h-5.6C-230,406.1-230,406.5-229.9,406.9z M-224.9,404.2c-0.1-0.4-0.3-0.7-0.5-1s-0.5-0.5-0.8-0.7s-0.7-0.2-1.1-0.2
			c-0.4,0-0.7,0.1-1,0.2s-0.6,0.3-0.8,0.6c-0.2,0.3-0.4,0.6-0.6,1c-0.1,0.4-0.2,0.8-0.3,1.3h5.3C-224.7,405-224.7,404.6-224.9,404.2
			z"/>
		<path class="st1" d="M-223.2,403.4c0.1-0.3,0.3-0.5,0.5-0.7s0.5-0.4,0.8-0.5s0.7-0.2,1.1-0.2c0.3,0,0.6,0,0.8,0.1
			c0.3,0.1,0.5,0.2,0.7,0.3c0.2,0.2,0.4,0.3,0.5,0.6s0.2,0.5,0.2,0.9v4.3c0,0.1,0,0.2,0.1,0.3c0.1,0.1,0.1,0.1,0.2,0.1
			c0.1,0,0.2,0,0.3,0s0.2,0,0.3,0v0.3h-0.4c-0.2,0-0.4,0-0.5-0.1s-0.2-0.3-0.2-0.5v-0.9l0,0c-0.1,0.2-0.2,0.4-0.3,0.6
			c-0.2,0.2-0.3,0.4-0.6,0.5c-0.2,0.2-0.5,0.3-0.8,0.4s-0.6,0.1-1,0.1c-0.7,0-1.2-0.1-1.6-0.4s-0.6-0.7-0.6-1.3c0-0.4,0.1-0.7,0.2-1
			c0.1-0.3,0.3-0.4,0.5-0.6c0.2-0.1,0.5-0.2,0.7-0.3c0.3-0.1,0.6-0.1,0.8-0.1c0.5,0,0.9,0,1.2-0.1c0.3,0,0.6-0.1,0.8-0.1
			c0.2-0.1,0.4-0.2,0.5-0.3s0.2-0.3,0.2-0.6c0-0.2,0-0.4-0.1-0.6c0-0.2-0.1-0.4-0.3-0.6c-0.1-0.2-0.3-0.3-0.6-0.4s-0.6-0.2-1.1-0.2
			c-0.7,0-1.2,0.2-1.6,0.5c-0.4,0.3-0.6,0.8-0.6,1.4h-0.3C-223.4,404-223.3,403.7-223.2,403.4z M-218.9,405
			c-0.1,0.1-0.2,0.2-0.4,0.3c-0.2,0.1-0.4,0.1-0.6,0.1c-0.2,0-0.5,0.1-0.8,0.1s-0.5,0-0.8,0s-0.5,0-0.8,0.1c-0.2,0-0.5,0.1-0.7,0.3
			c-0.2,0.1-0.3,0.3-0.5,0.5s-0.2,0.5-0.2,0.9c0,0.2,0,0.4,0.1,0.6s0.2,0.4,0.3,0.5c0.2,0.1,0.4,0.3,0.6,0.4s0.6,0.1,0.9,0.1
			c0.4,0,0.8-0.1,1.2-0.2c0.3-0.1,0.6-0.3,0.9-0.6s0.4-0.5,0.5-0.8s0.2-0.6,0.2-1L-218.9,405L-218.9,405z"/>
		<path class="st1" d="M-216.4,407.6c0,0.3,0,0.4,0.1,0.6c0.1,0.1,0.1,0.2,0.2,0.3s0.2,0.1,0.3,0.1s0.2,0,0.3,0s0.2,0,0.4,0
			c0.1,0,0.2,0,0.2,0v0.3c-0.1,0-0.2,0-0.2,0c-0.1,0-0.2,0-0.4,0c-0.3,0-0.6-0.1-0.8-0.3c-0.2-0.2-0.3-0.5-0.3-1v-5.2h-1.2v-0.3h1.2
			V400h0.3v2.1h1.5v0.3h-1.5v5.2H-216.4z"/>
		<path class="st1" d="M-214,401v-1.3h0.3v1.3H-214z M-214,408.9v-6.7h0.3v6.7H-214z"/>
		<path class="st1" d="M-207.6,402.3l-2.5,6.7h-0.3l-2.7-6.7h0.3l2.6,6.4l0,0l2.4-6.4H-207.6z"/>
		<path class="st1" d="M-207,406.9c0.1,0.4,0.3,0.7,0.5,1s0.5,0.5,0.8,0.7s0.7,0.2,1.2,0.2c0.7,0,1.3-0.2,1.7-0.6s0.8-0.9,0.9-1.7
			h0.3c-0.1,0.8-0.4,1.4-0.9,1.8s-1.2,0.6-1.9,0.6c-0.5,0-1-0.1-1.3-0.2c-0.4-0.2-0.7-0.4-0.9-0.7C-206.8,407.7-207,407.3-207,406.9
			c-0.2-0.4-0.3-0.9-0.3-1.4c0-0.6,0.1-1,0.2-1.5c0.2-0.4,0.4-0.8,0.7-1.1c0.3-0.3,0.6-0.5,0.9-0.7c0.4-0.2,0.7-0.2,1.1-0.2
			c0.5,0,1,0.1,1.3,0.3s0.7,0.5,0.9,0.8s0.4,0.7,0.5,1.1s0.2,0.9,0.1,1.3h-5.6C-207.1,406.1-207.1,406.5-207,406.9z M-202,404.2
			c-0.1-0.4-0.3-0.7-0.5-1s-0.5-0.5-0.8-0.7s-0.7-0.2-1.1-0.2c-0.4,0-0.7,0.1-1,0.2s-0.6,0.3-0.8,0.6c-0.2,0.3-0.4,0.6-0.6,1
			c-0.1,0.4-0.2,0.8-0.3,1.3h5.3C-201.8,405-201.9,404.6-202,404.2z"/>
	</g>
</g>
</svg>
