<?xml version="1.0" encoding="utf-8"?>
<!-- Generator: Adobe Illustrator 19.0.0, SVG Export Plug-In . SVG Version: 6.00 Build 0)  -->
<svg version="1.1" id="Layer_1" xmlns="http://www.w3.org/2000/svg" xmlns:xlink="http://www.w3.org/1999/xlink" x="0px" y="0px"
	 viewBox="-263 354.7 84.5 84.3" style="enable-background:new -263 354.7 84.5 84.3;" xml:space="preserve">
<style type="text/css">
	.st0{enable-background:new    ;}
	.st1{fill:#B8B5B5;stroke:#B8B5B5;stroke-width:0.25;stroke-miterlimit:10;}
</style>
<g>
	<g class="st0">
		<path class="st1" d="M-229.4,390.5c0.2-0.9,0.7-1.7,1.4-2.3c0.7-0.6,1.6-0.9,2.7-0.9c0.7,0,1.3,0.1,1.9,0.4c0.5,0.3,1,0.7,1.4,1.2
			s0.6,1.1,0.8,1.7s0.3,1.3,0.3,2.1c0,0.8-0.1,1.5-0.3,2.1c-0.2,0.7-0.5,1.2-0.9,1.7s-0.8,0.8-1.4,1.1c-0.5,0.3-1.2,0.4-1.8,0.4
			c-1.1,0-1.9-0.3-2.7-0.9s-1.2-1.3-1.5-2.2l0,0v2.9h-0.4v-14.3h0.4L-229.4,390.5L-229.4,390.5z M-229.2,394.6
			c0.2,0.6,0.5,1.1,0.8,1.6s0.8,0.8,1.3,1.1s1.1,0.4,1.8,0.4s1.2-0.1,1.8-0.4s0.9-0.6,1.2-1.1s0.6-1,0.7-1.6
			c0.2-0.6,0.2-1.2,0.2-1.9c0-0.6-0.1-1.2-0.2-1.8c-0.2-0.6-0.4-1.1-0.7-1.6s-0.7-0.9-1.2-1.2s-1.1-0.5-1.8-0.5
			c-1.3,0-2.3,0.4-3,1.3c-0.8,0.9-1.1,2.1-1.1,3.7C-229.4,393.5-229.4,394-229.2,394.6z"/>
		<path class="st1" d="M-219.1,394.8c0.2,0.6,0.4,1.1,0.7,1.5s0.7,0.8,1.2,1c0.5,0.3,1.1,0.4,1.9,0.4c1.1,0,2-0.3,2.7-0.8
			c0.7-0.6,1.2-1.4,1.3-2.5h0.4c-0.1,1.2-0.6,2.1-1.4,2.8c-0.8,0.7-1.8,1-3,1c-0.8,0-1.5-0.1-2-0.4c-0.6-0.3-1-0.6-1.4-1.1
			s-0.6-1.1-0.8-1.7c-0.2-0.7-0.3-1.4-0.3-2.1c0-0.9,0.1-1.6,0.4-2.3c0.3-0.7,0.6-1.2,1-1.7s0.9-0.8,1.4-1s1.1-0.4,1.7-0.4
			c0.8,0,1.5,0.2,2.1,0.5s1.1,0.7,1.4,1.2c0.4,0.5,0.6,1.1,0.8,1.7c0.2,0.7,0.2,1.3,0.2,2h-8.6
			C-219.3,393.5-219.2,394.1-219.1,394.8z M-211.4,390.6c-0.2-0.6-0.4-1.1-0.8-1.5c-0.3-0.4-0.8-0.8-1.3-1s-1.1-0.4-1.8-0.4
			c-0.6,0-1.1,0.1-1.6,0.3c-0.5,0.2-0.9,0.5-1.3,0.9c-0.4,0.4-0.7,0.9-0.9,1.5s-0.4,1.2-0.4,1.9h8.2
			C-211.1,391.9-211.2,391.2-211.4,390.6z"/>
	</g>
	<g class="st0">
		<path class="st1" d="M-251.1,405.9c0.1,0.4,0.3,0.7,0.5,1s0.5,0.5,0.8,0.7s0.7,0.2,1.2,0.2c0.7,0,1.3-0.2,1.7-0.6
			c0.5-0.4,0.8-0.9,0.9-1.7h0.3c-0.1,0.8-0.4,1.4-0.9,1.8s-1.2,0.6-1.9,0.6c-0.5,0-1-0.1-1.3-0.2c-0.4-0.2-0.7-0.4-0.9-0.7
			C-250.9,406.6-251.1,406.2-251.1,405.9c-0.2-0.4-0.3-0.9-0.3-1.4c0-0.6,0.1-1,0.2-1.5c0.2-0.4,0.4-0.8,0.7-1.1
			c0.3-0.3,0.6-0.5,0.9-0.7c0.4-0.2,0.7-0.2,1.1-0.2c0.5,0,1,0.1,1.3,0.3c0.4,0.2,0.7,0.5,0.9,0.8s0.4,0.7,0.5,1.1s0.2,0.9,0.1,1.3
			h-5.6C-251.3,405-251.2,405.5-251.1,405.9z M-246.1,403.1c-0.1-0.4-0.3-0.7-0.5-1s-0.5-0.5-0.8-0.7s-0.7-0.2-1.1-0.2
			c-0.4,0-0.7,0.1-1,0.2s-0.6,0.3-0.8,0.6c-0.2,0.3-0.4,0.6-0.6,1c-0.1,0.4-0.2,0.8-0.3,1.3h5.3C-245.9,404-246,403.5-246.1,403.1z"
			/>
		<path class="st1" d="M-244.4,401.2v1.7l0,0c0.1-0.3,0.2-0.5,0.3-0.7s0.3-0.4,0.5-0.6s0.4-0.3,0.6-0.4c0.2-0.1,0.5-0.1,0.7-0.1
			c0.5,0,1,0.1,1.3,0.4s0.6,0.7,0.7,1.2l0,0c0.1-0.5,0.4-0.8,0.8-1.1c0.4-0.3,0.8-0.4,1.4-0.4c0.4,0,0.7,0.1,1,0.2s0.5,0.3,0.6,0.5
			c0.2,0.2,0.3,0.5,0.4,0.8s0.1,0.6,0.1,1v4.4h-0.3v-4.4c0-0.3,0-0.6-0.1-0.9s-0.2-0.5-0.3-0.7s-0.3-0.3-0.6-0.4
			c-0.2-0.1-0.5-0.2-0.9-0.2c-0.3,0-0.6,0.1-0.9,0.2c-0.3,0.1-0.5,0.3-0.7,0.5s-0.3,0.5-0.4,0.7c-0.1,0.3-0.1,0.6-0.1,0.9v4.2h-0.3
			v-4.3c0-0.3,0-0.6-0.1-0.9c0-0.3-0.1-0.5-0.3-0.7c-0.1-0.2-0.3-0.4-0.5-0.5s-0.5-0.2-0.9-0.2c-0.3,0-0.6,0.1-0.9,0.2
			s-0.5,0.4-0.7,0.6c-0.2,0.3-0.3,0.6-0.4,0.9s-0.1,0.7-0.1,1.1v3.8h-0.3v-6.7h0.4V401.2z"/>
		<path class="st1" d="M-234.5,410.1v-9h0.3v1.9l0,0c0.1-0.3,0.2-0.6,0.4-0.8c0.2-0.2,0.4-0.5,0.6-0.6c0.2-0.2,0.5-0.3,0.8-0.4
			s0.6-0.1,0.9-0.1c0.4,0,0.8,0.1,1.2,0.3c0.4,0.2,0.6,0.4,0.9,0.7c0.2,0.3,0.4,0.7,0.6,1.1s0.2,0.9,0.2,1.4s-0.1,0.9-0.2,1.3
			s-0.3,0.8-0.5,1.1c-0.2,0.3-0.5,0.6-0.9,0.8s-0.8,0.3-1.2,0.3c-0.7,0-1.3-0.2-1.8-0.6s-0.8-0.9-0.9-1.5l0,0v4.2L-234.5,410.1
			L-234.5,410.1z M-230.4,407.5c0.3-0.2,0.6-0.4,0.8-0.8s0.4-0.7,0.5-1c0.1-0.4,0.1-0.8,0.1-1.2c0-0.4-0.1-0.8-0.2-1.2
			s-0.3-0.7-0.5-1s-0.5-0.5-0.8-0.7s-0.7-0.3-1.1-0.3c-0.4,0-0.8,0.1-1.1,0.3c-0.3,0.2-0.6,0.4-0.9,0.7c-0.2,0.3-0.4,0.6-0.5,1
			s-0.2,0.8-0.2,1.2c0,1,0.2,1.9,0.7,2.4c0.5,0.6,1.1,0.8,2,0.8C-231.1,407.8-230.7,407.6-230.4,407.5z"/>
		<path class="st1" d="M-227.7,403.2c0.1-0.4,0.3-0.8,0.6-1.1c0.3-0.3,0.6-0.6,0.9-0.8c0.4-0.2,0.8-0.3,1.3-0.3s0.9,0.1,1.3,0.3
			c0.4,0.2,0.7,0.5,0.9,0.8c0.3,0.3,0.4,0.7,0.6,1.1c0.1,0.4,0.2,0.9,0.2,1.3s-0.1,0.9-0.2,1.3c-0.1,0.4-0.3,0.8-0.6,1.1
			c-0.3,0.3-0.6,0.6-0.9,0.8c-0.4,0.2-0.8,0.3-1.3,0.3s-0.9-0.1-1.3-0.3c-0.4-0.2-0.7-0.4-0.9-0.8c-0.3-0.3-0.4-0.7-0.6-1.1
			c-0.1-0.4-0.2-0.9-0.2-1.3S-227.8,403.6-227.7,403.2z M-227.5,405.8c0.1,0.4,0.3,0.7,0.5,1s0.5,0.5,0.9,0.7s0.7,0.3,1.2,0.3
			c0.4,0,0.8-0.1,1.2-0.3c0.3-0.2,0.6-0.4,0.9-0.7c0.2-0.3,0.4-0.6,0.5-1s0.2-0.8,0.2-1.2c0-0.4-0.1-0.8-0.2-1.2
			c-0.1-0.4-0.3-0.7-0.5-1s-0.5-0.5-0.9-0.7c-0.3-0.2-0.7-0.3-1.2-0.3s-0.8,0.1-1.2,0.3c-0.3,0.2-0.6,0.4-0.9,0.7
			c-0.2,0.3-0.4,0.6-0.5,1s-0.2,0.8-0.2,1.2C-227.6,405-227.6,405.4-227.5,405.8z"/>
		<path class="st1" d="M-212.5,401.2l-2.1,6.7h-0.3l-2.1-6.4l0,0l-2.1,6.4h-0.4l-2.1-6.7h0.2l2,6.4l0,0l2.1-6.4h0.4l2.1,6.4l0,0
			l2-6.4H-212.5z"/>
		<path class="st1" d="M-211.9,405.9c0.1,0.4,0.3,0.7,0.5,1s0.5,0.5,0.8,0.7s0.7,0.2,1.2,0.2c0.7,0,1.3-0.2,1.7-0.6s0.8-0.9,0.9-1.7
			h0.3c-0.1,0.8-0.4,1.4-0.9,1.8s-1.2,0.6-1.9,0.6c-0.5,0-1-0.1-1.3-0.2c-0.4-0.2-0.7-0.4-0.9-0.7
			C-211.7,406.6-211.9,406.2-211.9,405.9c-0.2-0.4-0.3-0.9-0.3-1.4c0-0.6,0.1-1,0.2-1.5c0.2-0.4,0.4-0.8,0.7-1.1
			c0.3-0.3,0.6-0.5,0.9-0.7c0.4-0.2,0.7-0.2,1.1-0.2c0.5,0,1,0.1,1.3,0.3s0.7,0.5,0.9,0.8s0.4,0.7,0.5,1.1s0.2,0.9,0.1,1.3h-5.6
			C-212,405-212,405.5-211.9,405.9z M-206.9,403.1c-0.1-0.4-0.3-0.7-0.5-1s-0.5-0.5-0.8-0.7s-0.7-0.2-1.1-0.2c-0.4,0-0.7,0.1-1,0.2
			s-0.6,0.3-0.8,0.6c-0.2,0.3-0.4,0.6-0.6,1c-0.1,0.4-0.2,0.8-0.3,1.3h5.3C-206.7,404-206.7,403.5-206.9,403.1z"/>
		<path class="st1" d="M-205.4,407.9v-6.7h0.3v1.7l0,0c0.1-0.3,0.2-0.5,0.3-0.7s0.3-0.4,0.5-0.6s0.5-0.3,0.8-0.4s0.6-0.1,1-0.1v0.3
			c-0.5,0-0.9,0-1.2,0.2s-0.6,0.4-0.8,0.6c-0.2,0.3-0.4,0.6-0.5,0.9s-0.2,0.7-0.2,1.1v3.8L-205.4,407.9L-205.4,407.9z"/>
		<path class="st1" d="M-202,405.9c0.1,0.4,0.3,0.7,0.5,1s0.5,0.5,0.8,0.7s0.7,0.2,1.2,0.2c0.7,0,1.3-0.2,1.7-0.6s0.8-0.9,0.9-1.7
			h0.3c-0.1,0.8-0.4,1.4-0.9,1.8s-1.2,0.6-1.9,0.6c-0.5,0-1-0.1-1.3-0.2c-0.4-0.2-0.7-0.4-0.9-0.7C-201.8,406.6-202,406.2-202,405.9
			c-0.2-0.4-0.3-0.9-0.3-1.4c0-0.6,0.1-1,0.2-1.5c0.2-0.4,0.4-0.8,0.7-1.1c0.3-0.3,0.6-0.5,0.9-0.7c0.4-0.2,0.7-0.2,1.1-0.2
			c0.5,0,1,0.1,1.3,0.3s0.7,0.5,0.9,0.8s0.4,0.7,0.5,1.1s0.2,0.9,0.1,1.3h-5.6C-202.1,405-202.1,405.5-202,405.9z M-197,403.1
			c-0.1-0.4-0.3-0.7-0.5-1s-0.5-0.5-0.8-0.7s-0.7-0.2-1.1-0.2c-0.4,0-0.7,0.1-1,0.2s-0.6,0.3-0.8,0.6c-0.2,0.3-0.4,0.6-0.6,1
			c-0.1,0.4-0.2,0.8-0.3,1.3h5.3C-196.8,404-196.9,403.5-197,403.1z"/>
		<path class="st1" d="M-190.1,398.6v9.3h-0.3V406l0,0c-0.2,0.6-0.5,1.1-1,1.5s-1,0.6-1.7,0.6c-0.4,0-0.8-0.1-1.2-0.3
			c-0.4-0.2-0.6-0.4-0.9-0.7s-0.4-0.7-0.6-1.1c-0.1-0.4-0.2-0.9-0.2-1.4s0.1-0.9,0.2-1.3s0.3-0.8,0.5-1.1c0.2-0.3,0.5-0.6,0.9-0.8
			s0.8-0.3,1.2-0.3c0.7,0,1.3,0.2,1.8,0.6s0.8,0.9,0.9,1.5l0,0v-4.5h0.4V398.6z M-191.1,402.1c-0.5-0.6-1.1-0.8-2-0.8
			c-0.5,0-0.8,0.1-1.2,0.3c-0.3,0.2-0.6,0.4-0.8,0.8s-0.4,0.7-0.5,1s-0.1,0.8-0.1,1.2c0,0.4,0.1,0.8,0.2,1.2c0.1,0.4,0.3,0.7,0.5,1
			s0.5,0.5,0.8,0.7s0.7,0.3,1.1,0.3s0.8-0.1,1.2-0.3c0.3-0.2,0.6-0.4,0.8-0.7c0.2-0.3,0.4-0.6,0.5-1s0.2-0.8,0.2-1.2
			C-190.3,403.5-190.6,402.8-191.1,402.1z"/>
	</g>
</g>
</svg>
