<?xml version="1.0" encoding="utf-8"?>
<!-- Generator: Adobe Illustrator 19.0.0, SVG Export Plug-In . SVG Version: 6.00 Build 0)  -->
<svg version="1.1" id="Layer_1" xmlns="http://www.w3.org/2000/svg" xmlns:xlink="http://www.w3.org/1999/xlink" x="0px" y="0px"
	 viewBox="-263 354.7 84.5 84.3" style="enable-background:new -263 354.7 84.5 84.3;" xml:space="preserve">
<style type="text/css">
	.st0{enable-background:new    ;}
	.st1{fill:#B8B5B5;stroke:#B8B5B5;stroke-width:0.25;stroke-miterlimit:10;}
</style>
<g>
	<g class="st0">
		<path class="st1" d="M-229.3,391.5c0.2-0.9,0.7-1.7,1.4-2.3s1.6-0.9,2.7-0.9c0.7,0,1.3,0.1,1.9,0.4c0.5,0.3,1,0.7,1.4,1.2
			s0.6,1.1,0.8,1.7s0.3,1.3,0.3,2.1c0,0.8-0.1,1.5-0.3,2.1c-0.2,0.7-0.5,1.2-0.9,1.7s-0.8,0.8-1.4,1.1s-1.2,0.4-1.8,0.4
			c-1.1,0-1.9-0.3-2.7-0.9c-0.7-0.6-1.2-1.3-1.5-2.2l0,0v2.9h-0.4v-14.3h0.4L-229.3,391.5L-229.3,391.5z M-229,395.7
			c0.2,0.6,0.5,1.1,0.8,1.6s0.8,0.8,1.3,1.1c0.5,0.3,1.1,0.4,1.8,0.4s1.2-0.1,1.8-0.4s0.9-0.6,1.2-1.1s0.6-1,0.7-1.6
			c0.2-0.6,0.2-1.2,0.2-1.9c0-0.6-0.1-1.2-0.2-1.8c-0.2-0.6-0.4-1.1-0.7-1.6s-0.7-0.9-1.2-1.2s-1.1-0.5-1.8-0.5
			c-1.3,0-2.3,0.4-3,1.3c-0.8,0.9-1.1,2.1-1.1,3.7C-229.3,394.5-229.2,395.1-229,395.7z"/>
		<path class="st1" d="M-218.9,395.8c0.2,0.6,0.4,1.1,0.7,1.5s0.7,0.8,1.2,1c0.5,0.3,1.1,0.4,1.9,0.4c1.1,0,2-0.3,2.7-0.8
			c0.7-0.6,1.2-1.4,1.3-2.5h0.4c-0.1,1.2-0.6,2.1-1.4,2.8c-0.8,0.7-1.8,1-3,1c-0.8,0-1.5-0.1-2-0.4c-0.6-0.3-1-0.6-1.4-1.1
			s-0.6-1.1-0.8-1.7c-0.2-0.7-0.3-1.4-0.3-2.1c0-0.9,0.1-1.6,0.4-2.3c0.3-0.7,0.6-1.2,1-1.7s0.9-0.8,1.4-1s1.1-0.4,1.7-0.4
			c0.8,0,1.5,0.2,2.1,0.5s1.1,0.7,1.4,1.2c0.4,0.5,0.6,1.1,0.8,1.7c0.2,0.7,0.2,1.3,0.2,2h-8.6
			C-219.1,394.6-219.1,395.2-218.9,395.8z M-211.2,391.7c-0.2-0.6-0.4-1.1-0.8-1.5c-0.3-0.4-0.8-0.8-1.3-1s-1.1-0.4-1.8-0.4
			c-0.6,0-1.1,0.1-1.6,0.3c-0.5,0.2-0.9,0.5-1.3,0.9c-0.4,0.4-0.7,0.9-0.9,1.5s-0.4,1.2-0.4,1.9h8.2
			C-211,392.9-211,392.3-211.2,391.7z"/>
	</g>
	<g class="st0">
		<path class="st1" d="M-239.6,402.3h1.1v-1.5c0-0.3,0-0.5,0.1-0.6s0.2-0.3,0.3-0.3c0.1-0.1,0.3-0.1,0.4-0.1c0.2,0,0.3,0,0.4,0
			c0.1,0,0.2,0,0.3,0s0.2,0,0.2,0v0.3c-0.1,0-0.2,0-0.3,0s-0.2,0-0.3,0c-0.4,0-0.7,0.1-0.8,0.2c-0.1,0.2-0.2,0.4-0.2,0.7v1.4h1.4
			v0.3h-1.4v6.4h-0.3v-6.4h-1.1v-0.4H-239.6z"/>
		<path class="st1" d="M-236,403.4c0.1-0.3,0.3-0.5,0.5-0.7s0.5-0.4,0.8-0.5s0.7-0.2,1.1-0.2c0.3,0,0.6,0,0.8,0.1s0.5,0.2,0.7,0.3
			c0.2,0.2,0.4,0.3,0.5,0.6c0.1,0.2,0.2,0.5,0.2,0.9v4.3c0,0.1,0,0.2,0.1,0.3c0.1,0.1,0.1,0.1,0.2,0.1c0.1,0,0.2,0,0.3,0
			s0.2,0,0.3,0v0.3h-0.4c-0.2,0-0.4,0-0.5-0.1s-0.2-0.3-0.2-0.5v-0.9l0,0c-0.1,0.2-0.2,0.4-0.3,0.6c-0.2,0.2-0.3,0.4-0.6,0.5
			c-0.2,0.2-0.5,0.3-0.8,0.4s-0.6,0.1-1,0.1c-0.7,0-1.2-0.1-1.6-0.4s-0.6-0.7-0.6-1.3c0-0.4,0.1-0.7,0.2-1c0.1-0.3,0.3-0.4,0.5-0.6
			c0.2-0.1,0.5-0.2,0.7-0.3c0.3-0.1,0.6-0.1,0.8-0.1c0.5,0,0.9,0,1.2-0.1c0.3,0,0.6-0.1,0.8-0.1s0.4-0.2,0.5-0.3s0.1-0.3,0.1-0.6
			c0-0.2,0-0.4-0.1-0.6c0-0.2-0.1-0.4-0.3-0.6s-0.3-0.3-0.6-0.4s-0.6-0.2-1.1-0.2c-0.7,0-1.2,0.2-1.6,0.5c-0.4,0.3-0.6,0.8-0.6,1.4
			h-0.3C-236.2,404-236.2,403.7-236,403.4z M-231.8,405c-0.1,0.1-0.2,0.2-0.4,0.3s-0.4,0.1-0.6,0.1c-0.2,0-0.5,0.1-0.8,0.1
			s-0.5,0-0.8,0s-0.5,0-0.8,0.1c-0.2,0-0.5,0.1-0.7,0.3c-0.2,0.1-0.3,0.3-0.5,0.5s-0.2,0.5-0.2,0.9c0,0.2,0,0.4,0.1,0.6
			s0.2,0.4,0.3,0.5c0.2,0.1,0.4,0.3,0.6,0.4s0.6,0.1,0.9,0.1c0.4,0,0.8-0.1,1.2-0.2c0.3-0.1,0.6-0.3,0.9-0.6s0.4-0.5,0.5-0.8
			s0.2-0.6,0.2-1L-231.8,405L-231.8,405z"/>
		<path class="st1" d="M-229.7,402.3v1.7l0,0c0.1-0.3,0.2-0.5,0.3-0.7s0.3-0.4,0.5-0.6s0.4-0.3,0.6-0.4c0.2-0.1,0.5-0.1,0.7-0.1
			c0.5,0,1,0.1,1.3,0.4s0.6,0.7,0.7,1.2l0,0c0.1-0.5,0.4-0.8,0.8-1.1c0.4-0.3,0.8-0.4,1.4-0.4c0.4,0,0.7,0.1,1,0.2s0.5,0.3,0.6,0.5
			c0.2,0.2,0.3,0.5,0.4,0.8s0.1,0.6,0.1,1v4.4h-0.3v-4.4c0-0.3,0-0.6-0.1-0.9s-0.2-0.5-0.3-0.7s-0.3-0.3-0.6-0.4
			c-0.2-0.1-0.5-0.2-0.9-0.2c-0.3,0-0.6,0.1-0.9,0.2c-0.3,0.1-0.5,0.3-0.7,0.5s-0.3,0.5-0.4,0.7c-0.1,0.3-0.1,0.6-0.1,0.9v4.2h-0.3
			v-4.3c0-0.3,0-0.6-0.1-0.9c0-0.3-0.1-0.5-0.3-0.7c-0.1-0.2-0.3-0.4-0.5-0.5s-0.5-0.2-0.9-0.2c-0.3,0-0.6,0.1-0.9,0.2
			s-0.5,0.4-0.7,0.6c-0.2,0.3-0.3,0.6-0.4,0.9s-0.1,0.7-0.1,1.1v3.8h-0.3v-6.7h0.4V402.3z"/>
		<path class="st1" d="M-220,404.3c0.1-0.4,0.3-0.8,0.6-1.1c0.3-0.3,0.6-0.6,0.9-0.8c0.4-0.2,0.8-0.3,1.3-0.3s0.9,0.1,1.3,0.3
			c0.4,0.2,0.7,0.5,0.9,0.8c0.3,0.3,0.4,0.7,0.6,1.1c0.1,0.4,0.2,0.9,0.2,1.3s-0.1,0.9-0.2,1.3c-0.1,0.4-0.3,0.8-0.6,1.1
			c-0.3,0.3-0.6,0.6-0.9,0.8c-0.4,0.2-0.8,0.3-1.3,0.3s-0.9-0.1-1.3-0.3c-0.4-0.2-0.7-0.4-0.9-0.8c-0.3-0.3-0.4-0.7-0.6-1.1
			c-0.1-0.4-0.2-0.9-0.2-1.3S-220.1,404.7-220,404.3z M-219.8,406.8c0.1,0.4,0.3,0.7,0.5,1s0.5,0.5,0.9,0.7c0.3,0.2,0.7,0.3,1.2,0.3
			c0.4,0,0.8-0.1,1.2-0.3s0.6-0.4,0.9-0.7c0.2-0.3,0.4-0.6,0.5-1s0.2-0.8,0.2-1.2c0-0.4-0.1-0.8-0.2-1.2c-0.1-0.4-0.3-0.7-0.5-1
			s-0.5-0.5-0.9-0.7c-0.3-0.2-0.7-0.3-1.2-0.3s-0.8,0.1-1.2,0.3c-0.3,0.2-0.6,0.4-0.9,0.7c-0.2,0.3-0.4,0.6-0.5,1s-0.2,0.8-0.2,1.2
			C-219.9,406-219.9,406.4-219.8,406.8z"/>
		<path class="st1" d="M-208.3,408.9v-1.7l0,0c-0.1,0.5-0.4,0.9-0.8,1.3c-0.4,0.3-0.9,0.5-1.6,0.5c-0.3,0-0.7,0-1-0.1
			s-0.5-0.3-0.8-0.5c-0.2-0.2-0.4-0.5-0.5-0.8s-0.2-0.6-0.2-1v-4.4h0.3v4.4c0,0.4,0.1,0.7,0.2,1c0.1,0.3,0.3,0.5,0.5,0.7
			s0.4,0.3,0.7,0.4s0.5,0.1,0.8,0.1c0.4,0,0.7-0.1,1.1-0.2c0.3-0.2,0.6-0.4,0.8-0.6c0.2-0.3,0.4-0.6,0.5-0.9s0.2-0.7,0.2-1.1v-3.8
			h0.3v6.7H-208.3z"/>
		<path class="st1" d="M-202.4,403.4c-0.1-0.2-0.3-0.4-0.4-0.6c-0.2-0.2-0.4-0.3-0.7-0.3c-0.3-0.1-0.6-0.1-0.9-0.1
			c-0.5,0-0.8,0.1-1.1,0.2s-0.5,0.3-0.6,0.4c-0.1,0.2-0.2,0.3-0.2,0.5s-0.1,0.3-0.1,0.3c0,0.3,0.1,0.6,0.2,0.8
			c0.1,0.2,0.3,0.3,0.5,0.4s0.5,0.2,0.8,0.2c0.3,0.1,0.6,0.2,1,0.2c0.3,0.1,0.5,0.1,0.8,0.2s0.5,0.2,0.7,0.3
			c0.2,0.1,0.4,0.3,0.5,0.5s0.2,0.5,0.2,0.8s-0.1,0.6-0.2,0.9c-0.1,0.2-0.3,0.4-0.6,0.6c-0.2,0.1-0.5,0.3-0.8,0.3
			c-0.3,0.1-0.6,0.1-0.9,0.1c-0.9,0-1.6-0.2-2-0.6c-0.5-0.4-0.7-1-0.7-1.8h0.3c0,0.8,0.2,1.3,0.6,1.7c0.4,0.4,1,0.5,1.8,0.5
			c0.2,0,0.5,0,0.7-0.1s0.5-0.1,0.7-0.3c0.2-0.1,0.4-0.3,0.5-0.5s0.2-0.4,0.2-0.7c0-0.3-0.1-0.5-0.2-0.7c-0.1-0.2-0.3-0.3-0.5-0.4
			s-0.5-0.2-0.7-0.3s-0.6-0.1-0.8-0.2c-0.3-0.1-0.6-0.2-0.8-0.2c-0.2-0.1-0.5-0.1-0.7-0.2c-0.3-0.1-0.5-0.3-0.6-0.5
			s-0.2-0.5-0.2-0.9c0-0.2,0-0.4,0.1-0.6s0.2-0.4,0.4-0.5c0.2-0.2,0.4-0.3,0.7-0.4s0.6-0.2,1.1-0.2c0.7,0,1.3,0.2,1.8,0.5
			c0.4,0.3,0.6,0.9,0.6,1.6h-0.3C-202.3,403.9-202.3,403.6-202.4,403.4z"/>
	</g>
</g>
</svg>
