<?xml version="1.0" encoding="utf-8"?>
<svg version="1.1" xmlns="http://www.w3.org/2000/svg" xmlns:xlink="http://www.w3.org/1999/xlink" x="0px" y="0px" viewBox="-263 354.7 84.5 84.3" style="enable-background:new -263 354.7 84.5 84.3;" xml:space="preserve">
	<style type="text/css">
		.st0{fill:#FFFFFF;}
		.st1{fill:#333333;}
	</style>
	<g id="Layer_2">
		<ellipse class="st0" cx="-220.8" cy="396.9" rx="42" ry="41.3"/>
	</g>
	<g id="Layer_1">
		<g>
			<path id="XMLID_210_" class="st1" d="M-202.9,389.4c0-3.1-0.6-7.6-2.7-10.9c-1.9-2.9-4.6-5.5-8.1-5.5c-4.5,0-4.3,6.7-4.3,6.7V407 C-209.7,405.8-202.9,398-202.9,389.4z"/>
			<path id="XMLID_209_" class="st1" d="M-220.7,355.6c-23.2,0-42,18.5-42,41.3c0,21.2,16.2,38.7,37.1,41c1.4,0.1,2.6-1,2.6-1.9 v-24.6c-11.3-1.2-20.1-10.6-20.1-22c0-10.7,6.6-19.7,17.6-21.1l-0.4,5.2c-6.5,1.3-12.1,8.3-12.1,15.9c0,8.7,6.5,16.4,15,17.7 v-27.3c0-3.3,1.1-11.3,9-11.3c3.8,0,8.3,2.9,10.9,6c2.2,2.6,5,7.9,5,15c0,11.4-8.8,20.8-20,22v24.6c0,2.5,2.8,1.9,4.4,1.6 c19.8-3.3,34.9-20.3,34.9-40.7C-178.8,374.1-197.6,355.6-220.7,355.6z"/>
		</g>
	</g>
</svg>